<svg version="1.1" xmlns="http://www.w3.org/2000/svg" viewBox="0 0 1000 720" width="1000" height="720">
  <!-- svg-source:excalidraw -->
  
  <defs>
    <style>
      @font-face {
        font-family: "Virgil";
        src: url("/dist/excalidraw-assets/Virgil.woff2");
      }
      @font-face {
        font-family: "Cascadia";
        src: url("/dist/excalidraw-assets/Cascadia.woff2");
      }
      @font-face {
        font-family: "GoogleSans_Regular";
        src: url("/dist/excalidraw-assets/GoogleSans_Regular.ttf");
      }
      @font-face {
        font-family: "GoogleSans_Medium";
        src: url("/dist/excalidraw-assets/GoogleSans_Medium.ttf");
      }
    </style>
  </defs>
  <rect x="0" y="0" width="1000" height="720" fill="transparent"></rect><g stroke-linecap="round" transform="translate(10 10) rotate(0 490 350)"><path d="M0 0 L980 0 L980 700 L0 700" stroke="none" stroke-width="0" fill="#FFF"></path><path d="M0 0 C285.18 0, 570.36 0, 980 0 M0 0 C382.49 0, 764.98 0, 980 0 M980 0 C980 191.26, 980 382.51, 980 700 M980 0 C980 238.12, 980 476.24, 980 700 M980 700 C754.78 700, 529.57 700, 0 700 M980 700 C777.11 700, 574.23 700, 0 700 M0 700 C0 481.57, 0 263.15, 0 0 M0 700 C0 501.91, 0 303.81, 0 0" stroke="#d5d7dc" stroke-width="2" fill="none"></path></g><g stroke-linecap="round" transform="translate(30 210) rotate(0 470 240)"><path d="M0 0 L940 0 L940 480 L0 480" stroke="none" stroke-width="0" fill="#f1f3f4"></path><path d="M0 0 C233.89 0, 467.79 0, 940 0 M0 0 C304.69 0, 609.39 0, 940 0 M940 0 C940 116.19, 940 232.37, 940 480 M940 0 C940 96.88, 940 193.77, 940 480 M940 480 C723.08 480, 506.15 480, 0 480 M940 480 C575.32 480, 210.64 480, 0 480 M0 480 C0 293.55, 0 107.09, 0 0 M0 480 C0 352.14, 0 224.27, 0 0" stroke="#FFFFFF" stroke-width="2" fill="none"></path></g><g stroke-opacity="0.8" fill-opacity="0.8" transform="translate(50 230) rotate(0 95.5 11.5)"><text x="0" y="19" font-family="Helvetica, Segoe UI Emoji" font-size="20px" fill="#202124" text-anchor="start" style="white-space: pre;" direction="ltr">Google Cloud Project</text></g><g stroke-linecap="round" transform="translate(50 270) rotate(0 450 90)"><path d="M0 0 L900 0 L900 180 L0 180" stroke="none" stroke-width="0" fill="#d2e3fc"></path><path d="M0 0 C246.87 0, 493.75 0, 900 0 M0 0 C222.99 0, 445.99 0, 900 0 M900 0 C900 39.31, 900 78.61, 900 180 M900 0 C900 69.61, 900 139.21, 900 180 M900 180 C667.7 180, 435.4 180, 0 180 M900 180 C685.83 180, 471.66 180, 0 180 M0 180 C0 123.41, 0 66.82, 0 0 M0 180 C0 127.98, 0 75.96, 0 0" stroke="#4285f4" stroke-width="2" fill="none"></path></g><g stroke-linecap="round" transform="translate(50 490) rotate(0 450 90)"><path d="M0 0 L900 0 L900 180 L0 180" stroke="none" stroke-width="0" fill="#d2e3fc"></path><path d="M0 0 C244.97 0, 489.93 0, 900 0 M0 0 C306.97 0, 613.93 0, 900 0 M900 0 C900 51.85, 900 103.69, 900 180 M900 0 C900 52.49, 900 104.98, 900 180 M900 180 C651.63 180, 403.26 180, 0 180 M900 180 C707.75 180, 515.5 180, 0 180 M0 180 C0 127.44, 0 74.89, 0 0 M0 180 C0 117.56, 0 55.12, 0 0" stroke="#4285f4" stroke-width="2" fill="none"></path></g><g stroke-opacity="0.8" fill-opacity="0.8" transform="translate(470 290) rotate(0 45 9)"><text x="0" y="14" font-family="Helvetica, Segoe UI Emoji" font-size="16px" fill="#202124" text-anchor="start" style="white-space: pre;" direction="ltr">FRONTEND</text></g><g stroke-opacity="0.8" fill-opacity="0.8" transform="translate(450 510) rotate(0 76 9)"><text x="0" y="14" font-family="Helvetica, Segoe UI Emoji" font-size="16px" fill="#202124" text-anchor="start" style="white-space: pre;" direction="ltr">DATA PROCESSING</text></g><g stroke-linecap="round" transform="translate(30 30) rotate(0 470 80)"><path d="M0 0 L940 0 L940 160 L0 160" stroke="none" stroke-width="0" fill="#d2e3fc"></path><path d="M0 0 C318.21 0, 636.42 0, 940 0 M0 0 C364.22 0, 728.44 0, 940 0 M940 0 C940 37.72, 940 75.44, 940 160 M940 0 C940 57.21, 940 114.42, 940 160 M940 160 C573.62 160, 207.25 160, 0 160 M940 160 C588.72 160, 237.44 160, 0 160 M0 160 C0 112.07, 0 64.13, 0 0 M0 160 C0 100.42, 0 40.85, 0 0" stroke="#4285f4" stroke-width="2" fill="none"></path></g><g stroke-opacity="0.8" fill-opacity="0.8" transform="translate(470 50) rotate(0 29.5 10)"><text x="0" y="16" font-family="Helvetica, Segoe UI Emoji" font-size="16.444444444444446px" fill="#202124" text-anchor="start" style="white-space: pre;" direction="ltr">CLIENT</text></g><g stroke-linecap="round" transform="translate(450 90) rotate(0 50 41)"><path d="M8.2 0 L91.8 0 L95.39 0.51 L97.95 2.05 L99.49 4.61 L100 8.2 L100 73.8 L99.49 77.39 L97.95 79.95 L95.39 81.49 L91.8 82 L8.2 82 L4.61 81.49 L2.05 79.95 L0.51 77.39 L0 73.8 L0 8.2 L0.51 4.61 L2.05 2.05 L4.61 0.51 L8.2 0" stroke="none" stroke-width="0" fill="#FFF"></path><path d="M8.2 0 M8.2 0 C36.96 0, 65.72 0, 91.8 0 M8.2 0 C30.86 0, 53.51 0, 91.8 0 M91.8 0 C97.27 0, 100 2.73, 100 8.2 M91.8 0 C97.27 0, 100 2.73, 100 8.2 M100 8.2 C100 32.74, 100 57.29, 100 73.8 M100 8.2 C100 33.45, 100 58.7, 100 73.8 M100 73.8 C100 79.27, 97.27 82, 91.8 82 M100 73.8 C100 79.27, 97.27 82, 91.8 82 M91.8 82 C58.84 82, 25.88 82, 8.2 82 M91.8 82 C73.63 82, 55.47 82, 8.2 82 M8.2 82 C2.73 82, 0 79.27, 0 73.8 M8.2 82 C2.73 82, 0 79.27, 0 73.8 M0 73.8 C0 50.97, 0 28.14, 0 8.2 M0 73.8 C0 48.15, 0 22.51, 0 8.2 M0 8.2 C0 2.73, 2.73 0, 8.2 0 M0 8.2 C0 2.73, 2.73 0, 8.2 0" stroke="#202124" stroke-width="1" fill="none"></path></g><g stroke-linecap="round"><g transform="translate(488 106) rotate(0 12 12)" fill-rule="evenodd"><path d="M0 0 L24 0 L24 24 L0 24 L0 0" stroke="none" stroke-width="0" fill="#00000000" fill-rule="evenodd"></path><path d="M0 0 C7.31 0, 14.61 0, 24 0 M0 0 C6.99 0, 13.98 0, 24 0 M24 0 C24 6.64, 24 13.28, 24 24 M24 0 C24 7.43, 24 14.85, 24 24 M24 24 C17.91 24, 11.83 24, 0 24 M24 24 C16.59 24, 9.19 24, 0 24 M0 24 C0 14.42, 0 4.84, 0 0 M0 24 C0 18.21, 0 12.43, 0 0 M0 0 C0 0, 0 0, 0 0 M0 0 C0 0, 0 0, 0 0" stroke="#00000000" stroke-width="1" fill="none"></path></g></g><g transform="translate(482.5 138) rotate(0 17.5 9)"><text x="17.5" y="14" font-family="Helvetica, Segoe UI Emoji" font-size="16px" fill="#202124" text-anchor="middle" style="white-space: pre;" direction="ltr">User</text></g><g stroke-linecap="round"><g transform="translate(504.5 118) rotate(0 -0.005000114440917969 -2.5)" fill-rule="evenodd"><path d="M0 0 L0 0 L0.97 -0.2 L1.76 -0.73 L2.3 -1.53 L2.49 -2.5 L2.3 -3.47 L1.76 -4.27 L0.97 -4.8 L0 -5 L-0.97 -4.8 L-1.77 -4.27 L-2.3 -3.47 L-2.5 -2.5 L-2.3 -1.53 L-1.77 -0.73 L-0.97 -0.2 L0 0 L0 0" stroke="none" stroke-width="0" fill="#000" fill-rule="evenodd"></path><path d="M0 0 C0 0, 0 0, 0 0 M0 0 C0 0, 0 0, 0 0 M0 0 C0.23 -0.05, 0.45 -0.09, 0.97 -0.2 M0 0 C0.3 -0.06, 0.6 -0.12, 0.97 -0.2 M0.97 -0.2 C1.28 -0.41, 1.6 -0.62, 1.76 -0.73 M0.97 -0.2 C1.16 -0.32, 1.35 -0.45, 1.76 -0.73 M1.76 -0.73 C1.93 -0.98, 2.09 -1.22, 2.3 -1.53 M1.76 -0.73 C1.91 -0.95, 2.05 -1.17, 2.3 -1.53 M2.3 -1.53 C2.37 -1.9, 2.45 -2.28, 2.49 -2.5 M2.3 -1.53 C2.37 -1.88, 2.44 -2.23, 2.49 -2.5 M2.49 -2.5 C2.43 -2.79, 2.37 -3.09, 2.3 -3.47 M2.49 -2.5 C2.43 -2.8, 2.37 -3.09, 2.3 -3.47 M2.3 -3.47 C2.17 -3.65, 2.05 -3.84, 1.76 -4.27 M2.3 -3.47 C2.11 -3.75, 1.93 -4.02, 1.76 -4.27 M1.76 -4.27 C1.57 -4.39, 1.39 -4.52, 0.97 -4.8 M1.76 -4.27 C1.57 -4.4, 1.38 -4.53, 0.97 -4.8 M0.97 -4.8 C0.63 -4.87, 0.29 -4.94, 0 -5 M0.97 -4.8 C0.74 -4.85, 0.5 -4.9, 0 -5 M0 -5 C-0.32 -4.94, -0.64 -4.87, -0.97 -4.8 M0 -5 C-0.36 -4.93, -0.72 -4.86, -0.97 -4.8 M-0.97 -4.8 C-1.24 -4.63, -1.5 -4.45, -1.77 -4.27 M-0.97 -4.8 C-1.28 -4.6, -1.58 -4.39, -1.77 -4.27 M-1.77 -4.27 C-1.92 -4.04, -2.08 -3.81, -2.3 -3.47 M-1.77 -4.27 C-1.92 -4.04, -2.08 -3.81, -2.3 -3.47 M-2.3 -3.47 C-2.38 -3.1, -2.45 -2.73, -2.5 -2.5 M-2.3 -3.47 C-2.36 -3.2, -2.42 -2.92, -2.5 -2.5 M-2.5 -2.5 C-2.46 -2.3, -2.42 -2.1, -2.3 -1.53 M-2.5 -2.5 C-2.45 -2.25, -2.4 -2.01, -2.3 -1.53 M-2.3 -1.53 C-2.16 -1.32, -2.03 -1.12, -1.77 -0.73 M-2.3 -1.53 C-2.12 -1.26, -1.94 -0.99, -1.77 -0.73 M-1.77 -0.73 C-1.54 -0.58, -1.32 -0.43, -0.97 -0.2 M-1.77 -0.73 C-1.58 -0.61, -1.4 -0.48, -0.97 -0.2 M-0.97 -0.2 C-0.62 -0.12, -0.26 -0.05, 0 0 M-0.97 -0.2 C-0.65 -0.13, -0.33 -0.07, 0 0 M0 0 C0 0, 0 0, 0 0 M0 0 C0 0, 0 0, 0 0 M0 0 C0 0, 0 0, 0 0 M0 0 C0 0, 0 0, 0 0" stroke="#00000000" stroke-width="1" fill="none"></path></g></g><g stroke-linecap="round"><g transform="translate(497 117) rotate(0 -0.005000114440917969 -3)" fill-rule="evenodd"><path d="M0 0 L0 0 L1.17 -0.24 L2.12 -0.88 L2.76 -1.83 L2.99 -3 L2.76 -4.17 L2.12 -5.12 L1.17 -5.76 L0 -6 L-1.17 -5.76 L-2.12 -5.12 L-2.76 -4.17 L-3 -3 L-2.76 -1.83 L-2.12 -0.88 L-1.17 -0.24 L0 0 L0 0" stroke="none" stroke-width="0" fill="#000" fill-rule="evenodd"></path><path d="M0 0 C0 0, 0 0, 0 0 M0 0 C0 0, 0 0, 0 0 M0 0 C0.39 -0.08, 0.78 -0.16, 1.17 -0.24 M0 0 C0.39 -0.08, 0.78 -0.16, 1.17 -0.24 M1.17 -0.24 C1.41 -0.4, 1.66 -0.57, 2.12 -0.88 M1.17 -0.24 C1.45 -0.43, 1.74 -0.62, 2.12 -0.88 M2.12 -0.88 C2.31 -1.16, 2.5 -1.44, 2.76 -1.83 M2.12 -0.88 C2.33 -1.2, 2.54 -1.51, 2.76 -1.83 M2.76 -1.83 C2.83 -2.21, 2.91 -2.59, 2.99 -3 M2.76 -1.83 C2.81 -2.08, 2.86 -2.33, 2.99 -3 M2.99 -3 C2.92 -3.37, 2.84 -3.74, 2.76 -4.17 M2.99 -3 C2.91 -3.42, 2.82 -3.84, 2.76 -4.17 M2.76 -4.17 C2.5 -4.55, 2.25 -4.92, 2.12 -5.12 M2.76 -4.17 C2.57 -4.44, 2.39 -4.72, 2.12 -5.12 M2.12 -5.12 C1.88 -5.28, 1.65 -5.44, 1.17 -5.76 M2.12 -5.12 C1.92 -5.26, 1.72 -5.39, 1.17 -5.76 M1.17 -5.76 C0.74 -5.85, 0.32 -5.94, 0 -6 M1.17 -5.76 C0.84 -5.83, 0.52 -5.89, 0 -6 M0 -6 C-0.28 -5.94, -0.56 -5.89, -1.17 -5.76 M0 -6 C-0.44 -5.91, -0.88 -5.82, -1.17 -5.76 M-1.17 -5.76 C-1.4 -5.61, -1.64 -5.45, -2.12 -5.12 M-1.17 -5.76 C-1.54 -5.52, -1.91 -5.27, -2.12 -5.12 M-2.12 -5.12 C-2.26 -4.92, -2.4 -4.71, -2.76 -4.17 M-2.12 -5.12 C-2.35 -4.78, -2.58 -4.44, -2.76 -4.17 M-2.76 -4.17 C-2.84 -3.81, -2.91 -3.45, -3 -3 M-2.76 -4.17 C-2.85 -3.74, -2.94 -3.31, -3 -3 M-3 -3 C-2.91 -2.55, -2.82 -2.09, -2.76 -1.83 M-3 -3 C-2.92 -2.63, -2.85 -2.25, -2.76 -1.83 M-2.76 -1.83 C-2.55 -1.52, -2.34 -1.21, -2.12 -0.88 M-2.76 -1.83 C-2.51 -1.45, -2.25 -1.07, -2.12 -0.88 M-2.12 -0.88 C-1.79 -0.65, -1.45 -0.43, -1.17 -0.24 M-2.12 -0.88 C-1.89 -0.72, -1.66 -0.57, -1.17 -0.24 M-1.17 -0.24 C-0.78 -0.16, -0.39 -0.08, 0 0 M-1.17 -0.24 C-0.92 -0.18, -0.67 -0.13, 0 0 M0 0 C0 0, 0 0, 0 0 M0 0 C0 0, 0 0, 0 0 M0 0 C0 0, 0 0, 0 0 M0 0 C0 0, 0 0, 0 0" stroke="#00000000" stroke-width="1" fill="none"></path></g></g><g stroke-linecap="round"><g transform="translate(504.5 120) rotate(0 0 2.5)" fill-rule="evenodd"><path d="M0 0 L0 0 L-1.63 0.17 L-3.44 0.69 L-4.9 1.55 L-5.34 2.11 L-5.5 2.75 L-5.5 5 L5.5 5 L5.5 2.75 L5.5 2.75 L5.34 2.11 L4.9 1.55 L3.44 0.69 L1.63 0.17 L0 0 L0 0" stroke="none" stroke-width="0" fill="#000" fill-rule="evenodd"></path><path d="M0 0 C0 0, 0 0, 0 0 M0 0 C0 0, 0 0, 0 0 M0 0 C-0.51 0.05, -1.02 0.11, -1.63 0.17 M0 0 C-0.4 0.04, -0.79 0.08, -1.63 0.17 M-1.63 0.17 C-2.12 0.31, -2.61 0.45, -3.44 0.69 M-1.63 0.17 C-2.02 0.28, -2.4 0.39, -3.44 0.69 M-3.44 0.69 C-4 1.02, -4.56 1.35, -4.9 1.55 M-3.44 0.69 C-3.92 0.97, -4.4 1.26, -4.9 1.55 M-4.9 1.55 C-4.99 1.67, -5.09 1.79, -5.34 2.11 M-4.9 1.55 C-5.03 1.72, -5.17 1.89, -5.34 2.11 M-5.34 2.11 C-5.4 2.36, -5.46 2.61, -5.5 2.75 M-5.34 2.11 C-5.38 2.26, -5.42 2.41, -5.5 2.75 M-5.5 2.75 C-5.5 3.56, -5.5 4.37, -5.5 5 M-5.5 2.75 C-5.5 3.43, -5.5 4.1, -5.5 5 M-5.5 5 C-2.44 5, 0.62 5, 5.5 5 M-5.5 5 C-2.01 5, 1.49 5, 5.5 5 M5.5 5 C5.5 4.15, 5.5 3.3, 5.5 2.75 M5.5 5 C5.5 4.47, 5.5 3.94, 5.5 2.75 M5.5 2.75 C5.5 2.75, 5.5 2.75, 5.5 2.75 M5.5 2.75 C5.5 2.75, 5.5 2.75, 5.5 2.75 M5.5 2.75 C5.44 2.52, 5.39 2.3, 5.34 2.11 M5.5 2.75 C5.44 2.51, 5.38 2.26, 5.34 2.11 M5.34 2.11 C5.25 1.99, 5.16 1.88, 4.9 1.55 M5.34 2.11 C5.23 1.97, 5.13 1.84, 4.9 1.55 M4.9 1.55 C4.55 1.34, 4.2 1.14, 3.44 0.69 M4.9 1.55 C4.41 1.26, 3.92 0.98, 3.44 0.69 M3.44 0.69 C2.81 0.51, 2.19 0.33, 1.63 0.17 M3.44 0.69 C2.87 0.53, 2.31 0.37, 1.63 0.17 M1.63 0.17 C1.29 0.14, 0.96 0.1, 0 0 M1.63 0.17 C1.09 0.12, 0.56 0.06, 0 0 M0 0 C0 0, 0 0, 0 0 M0 0 C0 0, 0 0, 0 0 M0 0 C0 0, 0 0, 0 0 M0 0 C0 0, 0 0, 0 0" stroke="#00000000" stroke-width="1" fill="none"></path></g></g><g stroke-linecap="round"><g transform="translate(497 119) rotate(0 -2.315000057220459 3)" fill-rule="evenodd"><path d="M0 0 L0 0 L-0.97 0.05 L-2.08 0.22 L-4.37 0.88 L-5.4 1.37 L-6.23 1.97 L-6.79 2.68 L-7 3.5 L-7 6 L0 6 L0 3.75 L0 3.75 L0.08 3.01 L0.42 2.12 L1.14 1.18 L2.37 0.28 L1.11 0.07 L0 0 L0 0" stroke="none" stroke-width="0" fill="#000" fill-rule="evenodd"></path><path d="M0 0 C0 0, 0 0, 0 0 M0 0 C0 0, 0 0, 0 0 M0 0 C-0.22 0.01, -0.44 0.03, -0.97 0.05 M0 0 C-0.27 0.02, -0.54 0.03, -0.97 0.05 M-0.97 0.05 C-1.26 0.1, -1.54 0.14, -2.08 0.22 M-0.97 0.05 C-1.36 0.11, -1.75 0.17, -2.08 0.22 M-2.08 0.22 C-2.61 0.37, -3.14 0.52, -4.37 0.88 M-2.08 0.22 C-2.54 0.35, -3.01 0.49, -4.37 0.88 M-4.37 0.88 C-4.66 1.01, -4.94 1.15, -5.4 1.37 M-4.37 0.88 C-4.71 1.04, -5.04 1.2, -5.4 1.37 M-5.4 1.37 C-5.6 1.52, -5.81 1.66, -6.23 1.97 M-5.4 1.37 C-5.63 1.53, -5.86 1.7, -6.23 1.97 M-6.23 1.97 C-6.39 2.17, -6.55 2.38, -6.79 2.68 M-6.23 1.97 C-6.36 2.13, -6.49 2.3, -6.79 2.68 M-6.79 2.68 C-6.86 2.94, -6.93 3.21, -7 3.5 M-6.79 2.68 C-6.85 2.9, -6.9 3.12, -7 3.5 M-7 3.5 C-7 4.09, -7 4.67, -7 6 M-7 3.5 C-7 4.32, -7 5.15, -7 6 M-7 6 C-4.63 6, -2.25 6, 0 6 M-7 6 C-4.88 6, -2.77 6, 0 6 M0 6 C0 5.19, 0 4.38, 0 3.75 M0 6 C0 5.14, 0 4.29, 0 3.75 M0 3.75 C0 3.75, 0 3.75, 0 3.75 M0 3.75 C0 3.75, 0 3.75, 0 3.75 M0 3.75 C0.02 3.54, 0.05 3.34, 0.08 3.01 M0 3.75 C0.03 3.51, 0.05 3.26, 0.08 3.01 M0.08 3.01 C0.18 2.75, 0.28 2.5, 0.42 2.12 M0.08 3.01 C0.18 2.75, 0.28 2.48, 0.42 2.12 M0.42 2.12 C0.63 1.85, 0.84 1.57, 1.14 1.18 M0.42 2.12 C0.57 1.92, 0.72 1.73, 1.14 1.18 M1.14 1.18 C1.44 0.96, 1.74 0.74, 2.37 0.28 M1.14 1.18 C1.51 0.91, 1.89 0.63, 2.37 0.28 M2.37 0.28 C2.01 0.22, 1.66 0.16, 1.11 0.07 M2.37 0.28 C2.05 0.23, 1.72 0.17, 1.11 0.07 M1.11 0.07 C0.67 0.04, 0.23 0.02, 0 0 M1.11 0.07 C0.82 0.05, 0.54 0.04, 0 0 M0 0 C0 0, 0 0, 0 0 M0 0 C0 0, 0 0, 0 0 M0 0 C0 0, 0 0, 0 0 M0 0 C0 0, 0 0, 0 0" stroke="#00000000" stroke-width="1" fill="none"></path></g></g><g stroke-linecap="round"><g transform="translate(270 190) rotate(0 0 70)"><path d="M0 0 C0 46.63, 0 93.27, 0 140 M0 0 C0 31.3, 0 62.6, 0 140" stroke="#202124" stroke-width="1" fill="none"></path></g><g transform="translate(270 190) rotate(0 0 70)"><path d="M0 140 L-6.34 126.41 L6.34 126.41 L0 140" stroke="none" stroke-width="0" fill="#202124" fill-rule="evenodd"></path><path d="M0 140 C-2.11 135.47, -4.22 130.94, -6.34 126.41 M0 140 C-1.42 136.96, -2.83 133.92, -6.34 126.41 M-6.34 126.41 C-1.79 126.41, 2.77 126.41, 6.34 126.41 M-6.34 126.41 C-3.09 126.41, 0.16 126.41, 6.34 126.41 M6.34 126.41 C4.62 130.09, 2.91 133.77, 0 140 M6.34 126.41 C4.02 131.38, 1.7 136.35, 0 140 M0 140 C0 140, 0 140, 0 140 M0 140 C0 140, 0 140, 0 140" stroke="#202124" stroke-width="1" fill="none"></path></g></g><g stroke-linecap="round"><g transform="translate(270 410) rotate(0 0 70)"><path d="M0 0 C0 42.47, 0 84.94, 0 140 M0 0 C0 40.66, 0 81.33, 0 140" stroke="#202124" stroke-width="1" fill="none"></path></g><g transform="translate(270 410) rotate(0 0 70)"><path d="M0 140 L-6.34 126.41 L6.34 126.41 L0 140" stroke="none" stroke-width="0" fill="#202124" fill-rule="evenodd"></path><path d="M0 140 C-1.92 135.88, -3.85 131.75, -6.34 126.41 M0 140 C-1.84 136.05, -3.68 132.1, -6.34 126.41 M-6.34 126.41 C-2.7 126.41, 0.94 126.41, 6.34 126.41 M-6.34 126.41 C-1.33 126.41, 3.68 126.41, 6.34 126.41 M6.34 126.41 C4.31 130.76, 2.28 135.11, 0 140 M6.34 126.41 C4.8 129.71, 3.26 133.01, 0 140 M0 140 C0 140, 0 140, 0 140 M0 140 C0 140, 0 140, 0 140" stroke="#202124" stroke-width="1" fill="none"></path></g></g><g stroke-linecap="round"><g transform="translate(390 590) rotate(0 -40 0)"><path d="M0 0 C-26.61 0, -53.22 0, -80 0 M0 0 C-24.04 0, -48.08 0, -80 0" stroke="#202124" stroke-width="1" fill="none"></path></g><g transform="translate(390 590) rotate(0 -40 0)"><path d="M-80 0 L-66.41 -6.34 L-66.41 6.34 L-80 0" stroke="none" stroke-width="0" fill="#202124" fill-rule="evenodd"></path><path d="M-80 0 C-75.48 -2.11, -70.96 -4.22, -66.41 -6.34 M-80 0 C-75.91 -1.91, -71.83 -3.81, -66.41 -6.34 M-66.41 -6.34 C-66.41 -2.4, -66.41 1.53, -66.41 6.34 M-66.41 -6.34 C-66.41 -1.52, -66.41 3.3, -66.41 6.34 M-66.41 6.34 C-69.72 4.79, -73.04 3.24, -80 0 M-66.41 6.34 C-71.12 4.14, -75.83 1.94, -80 0 M-80 0 C-80 0, -80 0, -80 0 M-80 0 C-80 0, -80 0, -80 0" stroke="#202124" stroke-width="1" fill="none"></path></g></g><g stroke-linecap="round"><g transform="translate(630 590) rotate(0 30 0)"><path d="M0 0 C17.31 0, 34.62 0, 60 0 M0 0 C20.05 0, 40.1 0, 60 0" stroke="#202124" stroke-width="1" fill="none"></path></g><g transform="translate(630 590) rotate(0 30 0)"><path d="M60 0 L46.41 6.34 L46.41 -6.34 L60 0" stroke="none" stroke-width="0" fill="#202124" fill-rule="evenodd"></path><path d="M60 0 C56.08 1.83, 52.16 3.66, 46.41 6.34 M60 0 C55.46 2.12, 50.91 4.24, 46.41 6.34 M46.41 6.34 C46.41 2.95, 46.41 -0.45, 46.41 -6.34 M46.41 6.34 C46.41 2.34, 46.41 -1.65, 46.41 -6.34 M46.41 -6.34 C51.81 -3.82, 57.21 -1.3, 60 0 M46.41 -6.34 C51.14 -4.13, 55.87 -1.93, 60 0 M60 0 C60 0, 60 0, 60 0 M60 0 C60 0, 60 0, 60 0" stroke="#202124" stroke-width="1" fill="none"></path></g></g><g stroke-linecap="round" transform="translate(70 330) rotate(0 120 39.70332145690918)"><path d="M7.94 0 L235.53 0.5 L238.01 1.99 L239.5 4.47 L240 7.94 L239.5 74.94 L238.01 77.42 L235.53 78.91 L232.06 79.41 L4.47 78.91 L1.99 77.42 L0.5 74.94 L0 71.47 L0 7.94 L0.5 4.47 L1.99 1.99 L4.47 0.5 L7.94 0" stroke="none" stroke-width="0" fill="#FFF"></path><path d="M7.94 0 M7.94 0 C76.96 0, 145.97 0, 232.06 0 M7.94 0 C66.81 0, 125.68 0, 232.06 0 M232.06 0 C237.35 0, 240 2.65, 240 7.94 M232.06 0 C237.35 0, 240 2.65, 240 7.94 M240 7.94 C240 30.79, 240 53.64, 240 71.47 M240 7.94 C240 29.43, 240 50.93, 240 71.47 M240 71.47 C240 76.76, 237.35 79.41, 232.06 79.41 M240 71.47 C240 76.76, 237.35 79.41, 232.06 79.41 M232.06 79.41 C160.25 79.41, 88.44 79.41, 7.94 79.41 M232.06 79.41 C144.72 79.41, 57.37 79.41, 7.94 79.41 M7.94 79.41 C2.65 79.41, 0 76.76, 0 71.47 M7.94 79.41 C2.65 79.41, 0 76.76, 0 71.47 M0 71.47 C0 53.12, 0 34.77, 0 7.94 M0 71.47 C0 53.7, 0 35.93, 0 7.94 M0 7.94 C0 2.65, 2.65 0, 7.94 0 M0 7.94 C0 2.65, 2.65 0, 7.94 0" stroke="#202124" stroke-width="1" fill="none"></path></g><g transform="translate(86 349.7033214569092) rotate(0 38.5 9)"><text x="0" y="14" font-family="Helvetica, Segoe UI Emoji" font-size="16px" fill="#1A73E8" text-anchor="start" style="white-space: pre;" direction="ltr">Cloud Run</text></g><g transform="translate(86 371.7033214569092) rotate(0 32.5 9)"><text x="0" y="14" font-family="Helvetica, Segoe UI Emoji" font-size="16px" fill="#202124" text-anchor="start" style="white-space: pre;" direction="ltr">Frontend</text></g><g stroke-linecap="round"><g transform="translate(275.4666666984558 350) rotate(0 6.233334064483643 4.6866666078567505)" fill-rule="evenodd"><path d="M0 0 L3.11 9.37 L12.47 9.37 L0 0 L0 0" stroke="none" stroke-width="0" fill="#aecbfa" fill-rule="evenodd"></path><path d="M0 0 C1.16 3.5, 2.33 7, 3.11 9.37 M0 0 C1.21 3.64, 2.42 7.28, 3.11 9.37 M3.11 9.37 C6.64 9.37, 10.17 9.37, 12.47 9.37 M3.11 9.37 C5.41 9.37, 7.7 9.37, 12.47 9.37 M12.47 9.37 C9.67 7.27, 6.88 5.17, 0 0 M12.47 9.37 C9.31 7, 6.16 4.63, 0 0 M0 0 C0 0, 0 0, 0 0 M0 0 C0 0, 0 0, 0 0 M0 0 C0 0, 0 0, 0 0 M0 0 C0 0, 0 0, 0 0" stroke="transparent" stroke-width="1" fill="none"></path></g></g><g stroke-linecap="round"><g transform="translate(287.9333348274231 359.3733332157135) rotate(0 -6.233334064483643 4.686667442321777)" fill-rule="evenodd"><path d="M0 0 L-9.35 0 L-12.47 9.37 L0 0 L0 0" stroke="none" stroke-width="0" fill="#4285f4" fill-rule="evenodd"></path><path d="M0 0 C-2.13 0, -4.26 0, -9.35 0 M0 0 C-2 0, -4 0, -9.35 0 M-9.35 0 C-10.26 2.74, -11.17 5.47, -12.47 9.37 M-9.35 0 C-10.27 2.75, -11.18 5.49, -12.47 9.37 M-12.47 9.37 C-8.67 6.52, -4.87 3.66, 0 0 M-12.47 9.37 C-7.88 5.93, -3.3 2.48, 0 0 M0 0 C0 0, 0 0, 0 0 M0 0 C0 0, 0 0, 0 0 M0 0 C0 0, 0 0, 0 0 M0 0 C0 0, 0 0, 0 0" stroke="transparent" stroke-width="1" fill="none"></path></g></g><g stroke-linecap="round"><g transform="translate(270 368.74666810035706) rotate(0 2.7333333492279053 -4.686667442321777)" fill-rule="evenodd"><path d="M0 0 L3.13 -1.56 L5.47 -9.37 L2.34 -9.37 L0 0 L0 0" stroke="none" stroke-width="0" fill="#4285f4" fill-rule="evenodd"></path><path d="M0 0 C0.94 -0.47, 1.89 -0.94, 3.13 -1.56 M0 0 C1.21 -0.6, 2.42 -1.21, 3.13 -1.56 M3.13 -1.56 C3.63 -3.24, 4.13 -4.91, 5.47 -9.37 M3.13 -1.56 C3.79 -3.78, 4.45 -5.99, 5.47 -9.37 M5.47 -9.37 C4.51 -9.37, 3.55 -9.37, 2.34 -9.37 M5.47 -9.37 C4.78 -9.37, 4.09 -9.37, 2.34 -9.37 M2.34 -9.37 C1.77 -7.11, 1.21 -4.84, 0 0 M2.34 -9.37 C1.68 -6.73, 1.02 -4.08, 0 0 M0 0 C0 0, 0 0, 0 0 M0 0 C0 0, 0 0, 0 0 M0 0 C0 0, 0 0, 0 0 M0 0 C0 0, 0 0, 0 0" stroke="transparent" stroke-width="1" fill="none"></path></g></g><g stroke-linecap="round"><g transform="translate(270 350) rotate(0 2.7333333492279053 4.6866666078567505)" fill-rule="evenodd"><path d="M0 0 L2.34 9.37 L5.47 9.37 L3.13 1.56 L0 0 L0 0" stroke="none" stroke-width="0" fill="#aecbfa" fill-rule="evenodd"></path><path d="M0 0 C0.52 2.08, 1.04 4.16, 2.34 9.37 M0 0 C0.92 3.69, 1.84 7.37, 2.34 9.37 M2.34 9.37 C3.39 9.37, 4.45 9.37, 5.47 9.37 M2.34 9.37 C3.02 9.37, 3.7 9.37, 5.47 9.37 M5.47 9.37 C4.73 6.93, 4 4.48, 3.13 1.56 M5.47 9.37 C4.56 6.33, 3.65 3.29, 3.13 1.56 M3.13 1.56 C1.93 0.96, 0.73 0.36, 0 0 M3.13 1.56 C2.49 1.24, 1.86 0.93, 0 0 M0 0 C0 0, 0 0, 0 0 M0 0 C0 0, 0 0, 0 0 M0 0 C0 0, 0 0, 0 0 M0 0 C0 0, 0 0, 0 0" stroke="transparent" stroke-width="1" fill="none"></path></g></g><g stroke-linecap="round" transform="translate(390 550) rotate(0 120 39.70332145690918)"><path d="M7.94 0 L235.53 0.5 L238.01 1.99 L239.5 4.47 L240 7.94 L239.5 74.94 L238.01 77.42 L235.53 78.91 L232.06 79.41 L4.47 78.91 L1.99 77.42 L0.5 74.94 L0 71.47 L0 7.94 L0.5 4.47 L1.99 1.99 L4.47 0.5 L7.94 0" stroke="none" stroke-width="0" fill="#FFF"></path><path d="M7.94 0 M7.94 0 C93.26 0, 178.59 0, 232.06 0 M7.94 0 C68.57 0, 129.21 0, 232.06 0 M232.06 0 C237.35 0, 240 2.65, 240 7.94 M232.06 0 C237.35 0, 240 2.65, 240 7.94 M240 7.94 C240 32.12, 240 56.29, 240 71.47 M240 7.94 C240 32.81, 240 57.67, 240 71.47 M240 71.47 C240 76.76, 237.35 79.41, 232.06 79.41 M240 71.47 C240 76.76, 237.35 79.41, 232.06 79.41 M232.06 79.41 C170.05 79.41, 108.04 79.41, 7.94 79.41 M232.06 79.41 C171.53 79.41, 110.99 79.41, 7.94 79.41 M7.94 79.41 C2.65 79.41, 0 76.76, 0 71.47 M7.94 79.41 C2.65 79.41, 0 76.76, 0 71.47 M0 71.47 C0 50.91, 0 30.36, 0 7.94 M0 71.47 C0 54.11, 0 36.76, 0 7.94 M0 7.94 C0 2.65, 2.65 0, 7.94 0 M0 7.94 C0 2.65, 2.65 0, 7.94 0" stroke="#202124" stroke-width="1" fill="none"></path></g><g transform="translate(406 569.7033214569092) rotate(0 38.5 9)"><text x="0" y="14" font-family="Helvetica, Segoe UI Emoji" font-size="16px" fill="#1A73E8" text-anchor="start" style="white-space: pre;" direction="ltr">Cloud Run</text></g><g transform="translate(406 591.7033214569092) rotate(0 75 9)"><text x="0" y="14" font-family="Helvetica, Segoe UI Emoji" font-size="16px" fill="#202124" text-anchor="start" style="white-space: pre;" direction="ltr">Batch processing job</text></g><g stroke-linecap="round"><g transform="translate(595.4666666984558 570) rotate(0 6.233334064483643 4.6866666078567505)" fill-rule="evenodd"><path d="M0 0 L3.11 9.37 L12.47 9.37 L0 0 L0 0" stroke="none" stroke-width="0" fill="#aecbfa" fill-rule="evenodd"></path><path d="M0 0 C0.93 2.8, 1.86 5.6, 3.11 9.37 M0 0 C1.11 3.34, 2.22 6.68, 3.11 9.37 M3.11 9.37 C5.94 9.37, 8.77 9.37, 12.47 9.37 M3.11 9.37 C6.67 9.37, 10.24 9.37, 12.47 9.37 M12.47 9.37 C9.81 7.38, 7.16 5.38, 0 0 M12.47 9.37 C7.72 5.81, 2.98 2.24, 0 0 M0 0 C0 0, 0 0, 0 0 M0 0 C0 0, 0 0, 0 0 M0 0 C0 0, 0 0, 0 0 M0 0 C0 0, 0 0, 0 0" stroke="transparent" stroke-width="1" fill="none"></path></g></g><g stroke-linecap="round"><g transform="translate(607.9333348274231 579.3733332157135) rotate(0 -6.233334064483643 4.686667442321777)" fill-rule="evenodd"><path d="M0 0 L-9.35 0 L-12.47 9.37 L0 0 L0 0" stroke="none" stroke-width="0" fill="#4285f4" fill-rule="evenodd"></path><path d="M0 0 C-2.58 0, -5.17 0, -9.35 0 M0 0 C-2.69 0, -5.37 0, -9.35 0 M-9.35 0 C-10.17 2.45, -10.98 4.89, -12.47 9.37 M-9.35 0 C-10.43 3.23, -11.5 6.47, -12.47 9.37 M-12.47 9.37 C-8.75 6.58, -5.02 3.78, 0 0 M-12.47 9.37 C-8.93 6.71, -5.39 4.06, 0 0 M0 0 C0 0, 0 0, 0 0 M0 0 C0 0, 0 0, 0 0 M0 0 C0 0, 0 0, 0 0 M0 0 C0 0, 0 0, 0 0" stroke="transparent" stroke-width="1" fill="none"></path></g></g><g stroke-linecap="round"><g transform="translate(590 588.746668100357) rotate(0 2.7333333492279053 -4.686667442321777)" fill-rule="evenodd"><path d="M0 0 L3.13 -1.56 L5.47 -9.37 L2.34 -9.37 L0 0 L0 0" stroke="none" stroke-width="0" fill="#4285f4" fill-rule="evenodd"></path><path d="M0 0 C0.65 -0.32, 1.3 -0.65, 3.13 -1.56 M0 0 C1.21 -0.6, 2.41 -1.2, 3.13 -1.56 M3.13 -1.56 C3.96 -4.36, 4.8 -7.16, 5.47 -9.37 M3.13 -1.56 C3.8 -3.8, 4.47 -6.04, 5.47 -9.37 M5.47 -9.37 C4.53 -9.37, 3.59 -9.37, 2.34 -9.37 M5.47 -9.37 C4.5 -9.37, 3.53 -9.37, 2.34 -9.37 M2.34 -9.37 C1.67 -6.68, 0.99 -3.98, 0 0 M2.34 -9.37 C1.52 -6.1, 0.7 -2.82, 0 0 M0 0 C0 0, 0 0, 0 0 M0 0 C0 0, 0 0, 0 0 M0 0 C0 0, 0 0, 0 0 M0 0 C0 0, 0 0, 0 0" stroke="transparent" stroke-width="1" fill="none"></path></g></g><g stroke-linecap="round"><g transform="translate(590 570) rotate(0 2.7333333492279053 4.6866666078567505)" fill-rule="evenodd"><path d="M0 0 L2.34 9.37 L5.47 9.37 L3.13 1.56 L0 0 L0 0" stroke="none" stroke-width="0" fill="#aecbfa" fill-rule="evenodd"></path><path d="M0 0 C0.92 3.69, 1.84 7.39, 2.34 9.37 M0 0 C0.5 2.01, 1 4.01, 2.34 9.37 M2.34 9.37 C3.15 9.37, 3.96 9.37, 5.47 9.37 M2.34 9.37 C3.54 9.37, 4.75 9.37, 5.47 9.37 M5.47 9.37 C4.81 7.16, 4.14 4.96, 3.13 1.56 M5.47 9.37 C4.8 7.14, 4.13 4.91, 3.13 1.56 M3.13 1.56 C2.36 1.18, 1.6 0.8, 0 0 M3.13 1.56 C2.08 1.04, 1.04 0.52, 0 0 M0 0 C0 0, 0 0, 0 0 M0 0 C0 0, 0 0, 0 0 M0 0 C0 0, 0 0, 0 0 M0 0 C0 0, 0 0, 0 0" stroke="transparent" stroke-width="1" fill="none"></path></g></g><g stroke-linecap="round" transform="translate(70 550) rotate(0 120 39.70332145690918)"><path d="M7.94 0 L235.53 0.5 L238.01 1.99 L239.5 4.47 L240 7.94 L239.5 74.94 L238.01 77.42 L235.53 78.91 L232.06 79.41 L4.47 78.91 L1.99 77.42 L0.5 74.94 L0 71.47 L0 7.94 L0.5 4.47 L1.99 1.99 L4.47 0.5 L7.94 0" stroke="none" stroke-width="0" fill="#FFF"></path><path d="M7.94 0 M7.94 0 C89.87 0, 171.8 0, 232.06 0 M7.94 0 C71.36 0, 134.78 0, 232.06 0 M232.06 0 C237.35 0, 240 2.65, 240 7.94 M232.06 0 C237.35 0, 240 2.65, 240 7.94 M240 7.94 C240 31.75, 240 55.57, 240 71.47 M240 7.94 C240 26.87, 240 45.8, 240 71.47 M240 71.47 C240 76.76, 237.35 79.41, 232.06 79.41 M240 71.47 C240 76.76, 237.35 79.41, 232.06 79.41 M232.06 79.41 C161.78 79.41, 91.5 79.41, 7.94 79.41 M232.06 79.41 C173.61 79.41, 115.15 79.41, 7.94 79.41 M7.94 79.41 C2.65 79.41, 0 76.76, 0 71.47 M7.94 79.41 C2.65 79.41, 0 76.76, 0 71.47 M0 71.47 C0 49.97, 0 28.48, 0 7.94 M0 71.47 C0 52.89, 0 34.32, 0 7.94 M0 7.94 C0 2.65, 2.65 0, 7.94 0 M0 7.94 C0 2.65, 2.65 0, 7.94 0" stroke="#202124" stroke-width="1" fill="none"></path></g><g transform="translate(86 569.7033214569092) rotate(0 51.5 9)"><text x="0" y="14" font-family="Helvetica, Segoe UI Emoji" font-size="16px" fill="#1A73E8" text-anchor="start" style="white-space: pre;" direction="ltr">Cloud Storage</text></g><g transform="translate(86 591.7033214569092) rotate(0 56 9)"><text x="0" y="14" font-family="Helvetica, Segoe UI Emoji" font-size="16px" fill="#202124" text-anchor="start" style="white-space: pre;" direction="ltr">Processed data</text></g><g stroke-linecap="round" transform="translate(270 569.7033214569092) rotate(0 10 3.5)"><path d="M0 0 L20 0 L20 7 L0 7" stroke="none" stroke-width="0" fill="#aecbfa"></path><path d="M0 0 C6.57 0, 13.15 0, 20 0 M0 0 C6.22 0, 12.44 0, 20 0 M20 0 C20 2.65, 20 5.29, 20 7 M20 0 C20 2.56, 20 5.12, 20 7 M20 7 C13.98 7, 7.97 7, 0 7 M20 7 C12.5 7, 5.01 7, 0 7 M0 7 C0 5.4, 0 3.81, 0 0 M0 7 C0 4.8, 0 2.61, 0 0" stroke="transparent" stroke-width="1" fill="none"></path></g><g stroke-linecap="round" transform="translate(288 569.7033214569092) rotate(0 1 3.5)"><path d="M0 0 L2 0 L2 7 L0 7" stroke="none" stroke-width="0" fill="#669df6"></path><path d="M0 0 C0.5 0, 1 0, 2 0 M0 0 C0.63 0, 1.26 0, 2 0 M2 0 C2 1.77, 2 3.55, 2 7 M2 0 C2 1.58, 2 3.17, 2 7 M2 7 C1.55 7, 1.1 7, 0 7 M2 7 C1.6 7, 1.2 7, 0 7 M0 7 C0 5.31, 0 3.61, 0 0 M0 7 C0 4.31, 0 1.63, 0 0" stroke="transparent" stroke-width="1" fill="none"></path></g><g stroke-linecap="round"><g transform="translate(290 569.7033214569092) rotate(0 -1 3.5)" fill-rule="evenodd"><path d="M0 0 L-2 0 L-2 7 L0 0 L0 0" stroke="none" stroke-width="0" fill="#4285f4" fill-rule="evenodd"></path><path d="M0 0 C-0.71 0, -1.42 0, -2 0 M0 0 C-0.62 0, -1.25 0, -2 0 M-2 0 C-2 1.41, -2 2.82, -2 7 M-2 0 C-2 2.42, -2 4.83, -2 7 M-2 7 C-1.45 5.09, -0.91 3.17, 0 0 M-2 7 C-1.38 4.82, -0.75 2.63, 0 0 M0 0 C0 0, 0 0, 0 0 M0 0 C0 0, 0 0, 0 0 M0 0 C0 0, 0 0, 0 0 M0 0 C0 0, 0 0, 0 0" stroke="#00000000" stroke-width="1" fill="none"></path></g></g><g stroke-linecap="round" transform="translate(270 569.7033214569092) rotate(0 1 3.5)"><path d="M0 0 L2 0 L2 7 L0 7" stroke="none" stroke-width="0" fill="#669df6"></path><path d="M0 0 C0.65 0, 1.29 0, 2 0 M0 0 C0.74 0, 1.48 0, 2 0 M2 0 C2 1.48, 2 2.96, 2 7 M2 0 C2 2.3, 2 4.61, 2 7 M2 7 C1.23 7, 0.47 7, 0 7 M2 7 C1.41 7, 0.82 7, 0 7 M0 7 C0 4.44, 0 1.87, 0 0 M0 7 C0 4.21, 0 1.41, 0 0" stroke="transparent" stroke-width="1" fill="none"></path></g><g stroke-linecap="round" transform="translate(274 572.7033214569092) rotate(0 3 0.5)"><path d="M0 0 L6 0 L6 1 L0 1" stroke="none" stroke-width="0" fill="#fff"></path><path d="M0 0 C2.37 0, 4.75 0, 6 0 M0 0 C1.53 0, 3.06 0, 6 0 M6 0 C6 0.27, 6 0.54, 6 1 M6 0 C6 0.26, 6 0.53, 6 1 M6 1 C3.7 1, 1.4 1, 0 1 M6 1 C3.77 1, 1.55 1, 0 1 M0 1 C0 0.69, 0 0.38, 0 0 M0 1 C0 0.76, 0 0.53, 0 0" stroke="transparent" stroke-width="1" fill="none"></path></g><g stroke-linecap="round" transform="translate(283 571.7033214569092) rotate(0 1.5 1.5)"><path d="M0.3 0 L3 0.3 L2.7 3 L0 2.7 L0.3 0" stroke="none" stroke-width="0" fill="#fff"></path><path d="M0.3 0 M0.3 0 C0.91 0, 1.52 0, 2.7 0 M0.3 0 C1.21 0, 2.11 0, 2.7 0 M2.7 0 C2.9 0, 3 0.1, 3 0.3 M2.7 0 C2.9 0, 3 0.1, 3 0.3 M3 0.3 C3 0.93, 3 1.57, 3 2.7 M3 0.3 C3 1.02, 3 1.74, 3 2.7 M3 2.7 C3 2.9, 2.9 3, 2.7 3 M3 2.7 C3 2.9, 2.9 3, 2.7 3 M2.7 3 C1.81 3, 0.92 3, 0.3 3 M2.7 3 C2.15 3, 1.6 3, 0.3 3 M0.3 3 C0.1 3, 0 2.9, 0 2.7 M0.3 3 C0.1 3, 0 2.9, 0 2.7 M0 2.7 C0 2.14, 0 1.57, 0 0.3 M0 2.7 C0 1.79, 0 0.87, 0 0.3 M0 0.3 C0 0.1, 0.1 0, 0.3 0 M0 0.3 C0 0.1, 0.1 0, 0.3 0" stroke="transparent" stroke-width="1" fill="none"></path></g><g stroke-linecap="round" transform="translate(270 578.7033214569092) rotate(0 10 3.5)"><path d="M0 0 L20 0 L20 7 L0 7" stroke="none" stroke-width="0" fill="#aecbfa"></path><path d="M0 0 C7.44 0, 14.88 0, 20 0 M0 0 C4.3 0, 8.61 0, 20 0 M20 0 C20 1.84, 20 3.68, 20 7 M20 0 C20 2.67, 20 5.33, 20 7 M20 7 C13.37 7, 6.74 7, 0 7 M20 7 C15.47 7, 10.93 7, 0 7 M0 7 C0 4.81, 0 2.61, 0 0 M0 7 C0 5.11, 0 3.22, 0 0" stroke="transparent" stroke-width="1" fill="none"></path></g><g stroke-linecap="round" transform="translate(288 578.7033214569092) rotate(0 1 3.5)"><path d="M0 0 L2 0 L2 7 L0 7" stroke="none" stroke-width="0" fill="#669df6"></path><path d="M0 0 C0.6 0, 1.21 0, 2 0 M0 0 C0.51 0, 1.02 0, 2 0 M2 0 C2 2.21, 2 4.43, 2 7 M2 0 C2 1.98, 2 3.96, 2 7 M2 7 C1.27 7, 0.54 7, 0 7 M2 7 C1.4 7, 0.81 7, 0 7 M0 7 C0 4.83, 0 2.66, 0 0 M0 7 C0 5.17, 0 3.35, 0 0" stroke="transparent" stroke-width="1" fill="none"></path></g><g stroke-linecap="round"><g transform="translate(290 578.7033214569092) rotate(0 -1 3.5)" fill-rule="evenodd"><path d="M0 0 L-2 0 L-2 7 L0 0 L0 0" stroke="none" stroke-width="0" fill="#4285f4" fill-rule="evenodd"></path><path d="M0 0 C-0.79 0, -1.58 0, -2 0 M0 0 C-0.59 0, -1.18 0, -2 0 M-2 0 C-2 1.76, -2 3.51, -2 7 M-2 0 C-2 1.93, -2 3.87, -2 7 M-2 7 C-1.55 5.44, -1.11 3.88, 0 0 M-2 7 C-1.26 4.42, -0.53 1.84, 0 0 M0 0 C0 0, 0 0, 0 0 M0 0 C0 0, 0 0, 0 0 M0 0 C0 0, 0 0, 0 0 M0 0 C0 0, 0 0, 0 0" stroke="#00000000" stroke-width="1" fill="none"></path></g></g><g stroke-linecap="round" transform="translate(270 578.7033214569092) rotate(0 1 3.5)"><path d="M0 0 L2 0 L2 7 L0 7" stroke="none" stroke-width="0" fill="#669df6"></path><path d="M0 0 C0.66 0, 1.31 0, 2 0 M0 0 C0.61 0, 1.23 0, 2 0 M2 0 C2 2.16, 2 4.32, 2 7 M2 0 C2 2.47, 2 4.93, 2 7 M2 7 C1.56 7, 1.12 7, 0 7 M2 7 C1.29 7, 0.58 7, 0 7 M0 7 C0 5.51, 0 4.02, 0 0 M0 7 C0 4.73, 0 2.46, 0 0" stroke="transparent" stroke-width="1" fill="none"></path></g><g stroke-linecap="round" transform="translate(274 581.7033214569092) rotate(0 3 0.5)"><path d="M0 0 L6 0 L6 1 L0 1" stroke="none" stroke-width="0" fill="#fff"></path><path d="M0 0 C2.35 0, 4.71 0, 6 0 M0 0 C1.84 0, 3.68 0, 6 0 M6 0 C6 0.33, 6 0.66, 6 1 M6 0 C6 0.33, 6 0.67, 6 1 M6 1 C3.67 1, 1.34 1, 0 1 M6 1 C3.69 1, 1.38 1, 0 1 M0 1 C0 0.71, 0 0.42, 0 0 M0 1 C0 0.68, 0 0.35, 0 0" stroke="transparent" stroke-width="1" fill="none"></path></g><g stroke-linecap="round" transform="translate(283 580.7033214569092) rotate(0 1.5 1.5)"><path d="M0.3 0 L3 0.3 L2.7 3 L0 2.7 L0.3 0" stroke="none" stroke-width="0" fill="#fff"></path><path d="M0.3 0 M0.3 0 C1.04 0, 1.77 0, 2.7 0 M0.3 0 C0.93 0, 1.56 0, 2.7 0 M2.7 0 C2.9 0, 3 0.1, 3 0.3 M2.7 0 C2.9 0, 3 0.1, 3 0.3 M3 0.3 C3 1.1, 3 1.9, 3 2.7 M3 0.3 C3 1.1, 3 1.89, 3 2.7 M3 2.7 C3 2.9, 2.9 3, 2.7 3 M3 2.7 C3 2.9, 2.9 3, 2.7 3 M2.7 3 C1.78 3, 0.85 3, 0.3 3 M2.7 3 C1.95 3, 1.2 3, 0.3 3 M0.3 3 C0.1 3, 0 2.9, 0 2.7 M0.3 3 C0.1 3, 0 2.9, 0 2.7 M0 2.7 C0 1.92, 0 1.15, 0 0.3 M0 2.7 C0 1.76, 0 0.83, 0 0.3 M0 0.3 C0 0.1, 0.1 0, 0.3 0 M0 0.3 C0 0.1, 0.1 0, 0.3 0" stroke="transparent" stroke-width="1" fill="none"></path></g><g stroke-linecap="round" transform="translate(690 550) rotate(0 120 39.70332145690918)"><path d="M7.94 0 L235.53 0.5 L238.01 1.99 L239.5 4.47 L240 7.94 L239.5 74.94 L238.01 77.42 L235.53 78.91 L232.06 79.41 L4.47 78.91 L1.99 77.42 L0.5 74.94 L0 71.47 L0 7.94 L0.5 4.47 L1.99 1.99 L4.47 0.5 L7.94 0" stroke="none" stroke-width="0" fill="#FFF"></path><path d="M7.94 0 M7.94 0 C73.93 0, 139.92 0, 232.06 0 M7.94 0 C89.98 0, 172.02 0, 232.06 0 M232.06 0 C237.35 0, 240 2.65, 240 7.94 M232.06 0 C237.35 0, 240 2.65, 240 7.94 M240 7.94 C240 31.27, 240 54.61, 240 71.47 M240 7.94 C240 25.27, 240 42.6, 240 71.47 M240 71.47 C240 76.76, 237.35 79.41, 232.06 79.41 M240 71.47 C240 76.76, 237.35 79.41, 232.06 79.41 M232.06 79.41 C180.4 79.41, 128.73 79.41, 7.94 79.41 M232.06 79.41 C183.65 79.41, 135.25 79.41, 7.94 79.41 M7.94 79.41 C2.65 79.41, 0 76.76, 0 71.47 M7.94 79.41 C2.65 79.41, 0 76.76, 0 71.47 M0 71.47 C0 46.34, 0 21.22, 0 7.94 M0 71.47 C0 56.63, 0 41.79, 0 7.94 M0 7.94 C0 2.65, 2.65 0, 7.94 0 M0 7.94 C0 2.65, 2.65 0, 7.94 0" stroke="#202124" stroke-width="1" fill="none"></path></g><g transform="translate(706 569.7033214569092) rotate(0 51.5 9)"><text x="0" y="14" font-family="Helvetica, Segoe UI Emoji" font-size="16px" fill="#1A73E8" text-anchor="start" style="white-space: pre;" direction="ltr">Cloud Storage</text></g><g transform="translate(706 591.7033214569092) rotate(0 34.5 9)"><text x="0" y="14" font-family="Helvetica, Segoe UI Emoji" font-size="16px" fill="#202124" text-anchor="start" style="white-space: pre;" direction="ltr">Raw data</text></g><g stroke-linecap="round" transform="translate(890 569.7033214569092) rotate(0 10 3.5)"><path d="M0 0 L20 0 L20 7 L0 7" stroke="none" stroke-width="0" fill="#aecbfa"></path><path d="M0 0 C7.35 0, 14.7 0, 20 0 M0 0 C7.27 0, 14.54 0, 20 0 M20 0 C20 1.5, 20 3.01, 20 7 M20 0 C20 2.06, 20 4.12, 20 7 M20 7 C13.16 7, 6.32 7, 0 7 M20 7 C12.65 7, 5.31 7, 0 7 M0 7 C0 5.09, 0 3.19, 0 0 M0 7 C0 5.39, 0 3.77, 0 0" stroke="transparent" stroke-width="1" fill="none"></path></g><g stroke-linecap="round" transform="translate(908 569.7033214569092) rotate(0 1 3.5)"><path d="M0 0 L2 0 L2 7 L0 7" stroke="none" stroke-width="0" fill="#669df6"></path><path d="M0 0 C0.61 0, 1.21 0, 2 0 M0 0 C0.54 0, 1.08 0, 2 0 M2 0 C2 2.36, 2 4.71, 2 7 M2 0 C2 2.25, 2 4.5, 2 7 M2 7 C1.57 7, 1.14 7, 0 7 M2 7 C1.24 7, 0.48 7, 0 7 M0 7 C0 5.1, 0 3.2, 0 0 M0 7 C0 4.76, 0 2.51, 0 0" stroke="transparent" stroke-width="1" fill="none"></path></g><g stroke-linecap="round"><g transform="translate(910 569.7033214569092) rotate(0 -1 3.5)" fill-rule="evenodd"><path d="M0 0 L-2 0 L-2 7 L0 0 L0 0" stroke="none" stroke-width="0" fill="#4285f4" fill-rule="evenodd"></path><path d="M0 0 C-0.66 0, -1.32 0, -2 0 M0 0 C-0.74 0, -1.48 0, -2 0 M-2 0 C-2 1.98, -2 3.96, -2 7 M-2 0 C-2 2.75, -2 5.49, -2 7 M-2 7 C-1.26 4.42, -0.53 1.84, 0 0 M-2 7 C-1.54 5.39, -1.08 3.79, 0 0 M0 0 C0 0, 0 0, 0 0 M0 0 C0 0, 0 0, 0 0 M0 0 C0 0, 0 0, 0 0 M0 0 C0 0, 0 0, 0 0" stroke="#00000000" stroke-width="1" fill="none"></path></g></g><g stroke-linecap="round" transform="translate(890 569.7033214569092) rotate(0 1 3.5)"><path d="M0 0 L2 0 L2 7 L0 7" stroke="none" stroke-width="0" fill="#669df6"></path><path d="M0 0 C0.47 0, 0.93 0, 2 0 M0 0 C0.71 0, 1.42 0, 2 0 M2 0 C2 1.44, 2 2.89, 2 7 M2 0 C2 1.56, 2 3.11, 2 7 M2 7 C1.24 7, 0.49 7, 0 7 M2 7 C1.29 7, 0.57 7, 0 7 M0 7 C0 4.36, 0 1.72, 0 0 M0 7 C0 5.11, 0 3.22, 0 0" stroke="transparent" stroke-width="1" fill="none"></path></g><g stroke-linecap="round" transform="translate(894 572.7033214569092) rotate(0 3 0.5)"><path d="M0 0 L6 0 L6 1 L0 1" stroke="none" stroke-width="0" fill="#fff"></path><path d="M0 0 C2.38 0, 4.77 0, 6 0 M0 0 C1.21 0, 2.43 0, 6 0 M6 0 C6 0.36, 6 0.73, 6 1 M6 0 C6 0.22, 6 0.45, 6 1 M6 1 C3.92 1, 1.84 1, 0 1 M6 1 C4.49 1, 2.99 1, 0 1 M0 1 C0 0.78, 0 0.55, 0 0 M0 1 C0 0.69, 0 0.38, 0 0" stroke="transparent" stroke-width="1" fill="none"></path></g><g stroke-linecap="round" transform="translate(903 571.7033214569092) rotate(0 1.5 1.5)"><path d="M0.3 0 L3 0.3 L2.7 3 L0 2.7 L0.3 0" stroke="none" stroke-width="0" fill="#fff"></path><path d="M0.3 0 M0.3 0 C0.79 0, 1.27 0, 2.7 0 M0.3 0 C0.82 0, 1.33 0, 2.7 0 M2.7 0 C2.9 0, 3 0.1, 3 0.3 M2.7 0 C2.9 0, 3 0.1, 3 0.3 M3 0.3 C3 0.83, 3 1.37, 3 2.7 M3 0.3 C3 1.12, 3 1.94, 3 2.7 M3 2.7 C3 2.9, 2.9 3, 2.7 3 M3 2.7 C3 2.9, 2.9 3, 2.7 3 M2.7 3 C2.1 3, 1.5 3, 0.3 3 M2.7 3 C2.05 3, 1.39 3, 0.3 3 M0.3 3 C0.1 3, 0 2.9, 0 2.7 M0.3 3 C0.1 3, 0 2.9, 0 2.7 M0 2.7 C0 1.96, 0 1.22, 0 0.3 M0 2.7 C0 2.13, 0 1.56, 0 0.3 M0 0.3 C0 0.1, 0.1 0, 0.3 0 M0 0.3 C0 0.1, 0.1 0, 0.3 0" stroke="transparent" stroke-width="1" fill="none"></path></g><g stroke-linecap="round" transform="translate(890 578.7033214569092) rotate(0 10 3.5)"><path d="M0 0 L20 0 L20 7 L0 7" stroke="none" stroke-width="0" fill="#aecbfa"></path><path d="M0 0 C4.95 0, 9.91 0, 20 0 M0 0 C6.88 0, 13.76 0, 20 0 M20 0 C20 1.4, 20 2.81, 20 7 M20 0 C20 1.75, 20 3.51, 20 7 M20 7 C13.05 7, 6.1 7, 0 7 M20 7 C13.88 7, 7.76 7, 0 7 M0 7 C0 4.31, 0 1.62, 0 0 M0 7 C0 5.37, 0 3.74, 0 0" stroke="transparent" stroke-width="1" fill="none"></path></g><g stroke-linecap="round" transform="translate(908 578.7033214569092) rotate(0 1 3.5)"><path d="M0 0 L2 0 L2 7 L0 7" stroke="none" stroke-width="0" fill="#669df6"></path><path d="M0 0 C0.47 0, 0.94 0, 2 0 M0 0 C0.47 0, 0.94 0, 2 0 M2 0 C2 1.87, 2 3.74, 2 7 M2 0 C2 2.56, 2 5.12, 2 7 M2 7 C1.36 7, 0.71 7, 0 7 M2 7 C1.45 7, 0.91 7, 0 7 M0 7 C0 5.25, 0 3.51, 0 0 M0 7 C0 5.49, 0 3.98, 0 0" stroke="transparent" stroke-width="1" fill="none"></path></g><g stroke-linecap="round"><g transform="translate(910 578.7033214569092) rotate(0 -1 3.5)" fill-rule="evenodd"><path d="M0 0 L-2 0 L-2 7 L0 0 L0 0" stroke="none" stroke-width="0" fill="#4285f4" fill-rule="evenodd"></path><path d="M0 0 C-0.54 0, -1.09 0, -2 0 M0 0 C-0.59 0, -1.17 0, -2 0 M-2 0 C-2 1.74, -2 3.49, -2 7 M-2 0 C-2 1.72, -2 3.43, -2 7 M-2 7 C-1.27 4.43, -0.53 1.86, 0 0 M-2 7 C-1.47 5.13, -0.93 3.26, 0 0 M0 0 C0 0, 0 0, 0 0 M0 0 C0 0, 0 0, 0 0 M0 0 C0 0, 0 0, 0 0 M0 0 C0 0, 0 0, 0 0" stroke="#00000000" stroke-width="1" fill="none"></path></g></g><g stroke-linecap="round" transform="translate(890 578.7033214569092) rotate(0 1 3.5)"><path d="M0 0 L2 0 L2 7 L0 7" stroke="none" stroke-width="0" fill="#669df6"></path><path d="M0 0 C0.44 0, 0.89 0, 2 0 M0 0 C0.64 0, 1.28 0, 2 0 M2 0 C2 2.01, 2 4.01, 2 7 M2 0 C2 2.11, 2 4.21, 2 7 M2 7 C1.39 7, 0.78 7, 0 7 M2 7 C1.5 7, 1.01 7, 0 7 M0 7 C0 5.2, 0 3.39, 0 0 M0 7 C0 4.69, 0 2.39, 0 0" stroke="transparent" stroke-width="1" fill="none"></path></g><g stroke-linecap="round" transform="translate(894 581.7033214569092) rotate(0 3 0.5)"><path d="M0 0 L6 0 L6 1 L0 1" stroke="none" stroke-width="0" fill="#fff"></path><path d="M0 0 C2.33 0, 4.67 0, 6 0 M0 0 C1.42 0, 2.84 0, 6 0 M6 0 C6 0.31, 6 0.61, 6 1 M6 0 C6 0.36, 6 0.72, 6 1 M6 1 C3.94 1, 1.87 1, 0 1 M6 1 C4.29 1, 2.57 1, 0 1 M0 1 C0 0.7, 0 0.41, 0 0 M0 1 C0 0.63, 0 0.26, 0 0" stroke="transparent" stroke-width="1" fill="none"></path></g><g stroke-linecap="round" transform="translate(903 580.7033214569092) rotate(0 1.5 1.5)"><path d="M0.3 0 L3 0.3 L2.7 3 L0 2.7 L0.3 0" stroke="none" stroke-width="0" fill="#fff"></path><path d="M0.3 0 M0.3 0 C0.87 0, 1.44 0, 2.7 0 M0.3 0 C0.78 0, 1.26 0, 2.7 0 M2.7 0 C2.9 0, 3 0.1, 3 0.3 M2.7 0 C2.9 0, 3 0.1, 3 0.3 M3 0.3 C3 1.16, 3 2.03, 3 2.7 M3 0.3 C3 1.13, 3 1.97, 3 2.7 M3 2.7 C3 2.9, 2.9 3, 2.7 3 M3 2.7 C3 2.9, 2.9 3, 2.7 3 M2.7 3 C2.01 3, 1.33 3, 0.3 3 M2.7 3 C1.78 3, 0.86 3, 0.3 3 M0.3 3 C0.1 3, 0 2.9, 0 2.7 M0.3 3 C0.1 3, 0 2.9, 0 2.7 M0 2.7 C0 1.81, 0 0.92, 0 0.3 M0 2.7 C0 2.05, 0 1.4, 0 0.3 M0 0.3 C0 0.1, 0.1 0, 0.3 0 M0 0.3 C0 0.1, 0.1 0, 0.3 0" stroke="transparent" stroke-width="1" fill="none"></path></g><g stroke-linecap="round" transform="translate(670 610) rotate(0 16 16)"><path d="M32 16 C32 16.93, 31.92 17.87, 31.76 18.78 C31.6 19.69, 31.35 20.6, 31.04 21.47 C30.72 22.34, 30.32 23.2, 29.86 24 C29.39 24.8, 28.85 25.58, 28.26 26.28 C27.66 26.99, 26.99 27.66, 26.28 28.26 C25.58 28.85, 24.8 29.39, 24 29.86 C23.2 30.32, 22.34 30.72, 21.47 31.04 C20.6 31.35, 19.69 31.6, 18.78 31.76 C17.87 31.92, 16.93 32, 16 32 C15.07 32, 14.13 31.92, 13.22 31.76 C12.31 31.6, 11.4 31.35, 10.53 31.04 C9.66 30.72, 8.8 30.32, 8 29.86 C7.2 29.39, 6.42 28.85, 5.72 28.26 C5.01 27.66, 4.34 26.99, 3.74 26.28 C3.15 25.58, 2.61 24.8, 2.14 24 C1.68 23.2, 1.28 22.34, 0.96 21.47 C0.65 20.6, 0.4 19.69, 0.24 18.78 C0.08 17.87, 0 16.93, 0 16 C0 15.07, 0.08 14.13, 0.24 13.22 C0.4 12.31, 0.65 11.4, 0.96 10.53 C1.28 9.66, 1.68 8.8, 2.14 8 C2.61 7.2, 3.15 6.42, 3.74 5.72 C4.34 5.01, 5.01 4.34, 5.72 3.74 C6.42 3.15, 7.2 2.61, 8 2.14 C8.8 1.68, 9.66 1.28, 10.53 0.96 C11.4 0.65, 12.31 0.4, 13.22 0.24 C14.13 0.08, 15.07 0, 16 0 C16.93 0, 17.87 0.08, 18.78 0.24 C19.69 0.4, 20.6 0.65, 21.47 0.96 C22.34 1.28, 23.2 1.68, 24 2.14 C24.8 2.61, 25.58 3.15, 26.28 3.74 C26.99 4.34, 27.66 5.01, 28.26 5.72 C28.85 6.42, 29.39 7.2, 29.86 8 C30.32 8.8, 30.72 9.66, 31.04 10.53 C31.35 11.4, 31.6 12.31, 31.76 13.22 C31.92 14.13, 31.96 15.54, 32 16 C32.04 16.46, 32.04 15.54, 32 16" stroke="none" stroke-width="0" fill="#202124"></path><path d="M32 16 C32 16.93, 31.92 17.87, 31.76 18.78 C31.6 19.69, 31.35 20.6, 31.04 21.47 C30.72 22.34, 30.32 23.2, 29.86 24 C29.39 24.8, 28.85 25.58, 28.26 26.28 C27.66 26.99, 26.99 27.66, 26.28 28.26 C25.58 28.85, 24.8 29.39, 24 29.86 C23.2 30.32, 22.34 30.72, 21.47 31.04 C20.6 31.35, 19.69 31.6, 18.78 31.76 C17.87 31.92, 16.93 32, 16 32 C15.07 32, 14.13 31.92, 13.22 31.76 C12.31 31.6, 11.4 31.35, 10.53 31.04 C9.66 30.72, 8.8 30.32, 8 29.86 C7.2 29.39, 6.42 28.85, 5.72 28.26 C5.01 27.66, 4.34 26.99, 3.74 26.28 C3.15 25.58, 2.61 24.8, 2.14 24 C1.68 23.2, 1.28 22.34, 0.96 21.47 C0.65 20.6, 0.4 19.69, 0.24 18.78 C0.08 17.87, 0 16.93, 0 16 C0 15.07, 0.08 14.13, 0.24 13.22 C0.4 12.31, 0.65 11.4, 0.96 10.53 C1.28 9.66, 1.68 8.8, 2.14 8 C2.61 7.2, 3.15 6.42, 3.74 5.72 C4.34 5.01, 5.01 4.34, 5.72 3.74 C6.42 3.15, 7.2 2.61, 8 2.14 C8.8 1.68, 9.66 1.28, 10.53 0.96 C11.4 0.65, 12.31 0.4, 13.22 0.24 C14.13 0.08, 15.07 0, 16 0 C16.93 0, 17.87 0.08, 18.78 0.24 C19.69 0.4, 20.6 0.65, 21.47 0.96 C22.34 1.28, 23.2 1.68, 24 2.14 C24.8 2.61, 25.58 3.15, 26.28 3.74 C26.99 4.34, 27.66 5.01, 28.26 5.72 C28.85 6.42, 29.39 7.2, 29.86 8 C30.32 8.8, 30.72 9.66, 31.04 10.53 C31.35 11.4, 31.6 12.31, 31.76 13.22 C31.92 14.13, 31.96 15.54, 32 16 C32.04 16.46, 32.04 15.54, 32 16" stroke="#202124" stroke-width="2" fill="none"></path></g><g transform="translate(680.5 618) rotate(0 4.5 8)"><text x="4.5" y="13" font-family="Helvetica, Segoe UI Emoji" font-size="14px" fill="#FFFFFF" text-anchor="middle" style="white-space: pre;" direction="ltr">1</text></g><g stroke-linecap="round" transform="translate(370 610) rotate(0 16 16)"><path d="M32 16 C32 16.93, 31.92 17.87, 31.76 18.78 C31.6 19.69, 31.35 20.6, 31.04 21.47 C30.72 22.34, 30.32 23.2, 29.86 24 C29.39 24.8, 28.85 25.58, 28.26 26.28 C27.66 26.99, 26.99 27.66, 26.28 28.26 C25.58 28.85, 24.8 29.39, 24 29.86 C23.2 30.32, 22.34 30.72, 21.47 31.04 C20.6 31.35, 19.69 31.6, 18.78 31.76 C17.87 31.92, 16.93 32, 16 32 C15.07 32, 14.13 31.92, 13.22 31.76 C12.31 31.6, 11.4 31.35, 10.53 31.04 C9.66 30.72, 8.8 30.32, 8 29.86 C7.2 29.39, 6.42 28.85, 5.72 28.26 C5.01 27.66, 4.34 26.99, 3.74 26.28 C3.15 25.58, 2.61 24.8, 2.14 24 C1.68 23.2, 1.28 22.34, 0.96 21.47 C0.65 20.6, 0.4 19.69, 0.24 18.78 C0.08 17.87, 0 16.93, 0 16 C0 15.07, 0.08 14.13, 0.24 13.22 C0.4 12.31, 0.65 11.4, 0.96 10.53 C1.28 9.66, 1.68 8.8, 2.14 8 C2.61 7.2, 3.15 6.42, 3.74 5.72 C4.34 5.01, 5.01 4.34, 5.72 3.74 C6.42 3.15, 7.2 2.61, 8 2.14 C8.8 1.68, 9.66 1.28, 10.53 0.96 C11.4 0.65, 12.31 0.4, 13.22 0.24 C14.13 0.08, 15.07 0, 16 0 C16.93 0, 17.87 0.08, 18.78 0.24 C19.69 0.4, 20.6 0.65, 21.47 0.96 C22.34 1.28, 23.2 1.68, 24 2.14 C24.8 2.61, 25.58 3.15, 26.28 3.74 C26.99 4.34, 27.66 5.01, 28.26 5.72 C28.85 6.42, 29.39 7.2, 29.86 8 C30.32 8.8, 30.72 9.66, 31.04 10.53 C31.35 11.4, 31.6 12.31, 31.76 13.22 C31.92 14.13, 31.96 15.54, 32 16 C32.04 16.46, 32.04 15.54, 32 16" stroke="none" stroke-width="0" fill="#202124"></path><path d="M32 16 C32 16.93, 31.92 17.87, 31.76 18.78 C31.6 19.69, 31.35 20.6, 31.04 21.47 C30.72 22.34, 30.32 23.2, 29.86 24 C29.39 24.8, 28.85 25.58, 28.26 26.28 C27.66 26.99, 26.99 27.66, 26.28 28.26 C25.58 28.85, 24.8 29.39, 24 29.86 C23.2 30.32, 22.34 30.72, 21.47 31.04 C20.6 31.35, 19.69 31.6, 18.78 31.76 C17.87 31.92, 16.93 32, 16 32 C15.07 32, 14.13 31.92, 13.22 31.76 C12.31 31.6, 11.4 31.35, 10.53 31.04 C9.66 30.72, 8.8 30.32, 8 29.86 C7.2 29.39, 6.42 28.85, 5.72 28.26 C5.01 27.66, 4.34 26.99, 3.74 26.28 C3.15 25.58, 2.61 24.8, 2.14 24 C1.68 23.2, 1.28 22.34, 0.96 21.47 C0.65 20.6, 0.4 19.69, 0.24 18.78 C0.08 17.87, 0 16.93, 0 16 C0 15.07, 0.08 14.13, 0.24 13.22 C0.4 12.31, 0.65 11.4, 0.96 10.53 C1.28 9.66, 1.68 8.8, 2.14 8 C2.61 7.2, 3.15 6.42, 3.74 5.72 C4.34 5.01, 5.01 4.34, 5.72 3.74 C6.42 3.15, 7.2 2.61, 8 2.14 C8.8 1.68, 9.66 1.28, 10.53 0.96 C11.4 0.65, 12.31 0.4, 13.22 0.24 C14.13 0.08, 15.07 0, 16 0 C16.93 0, 17.87 0.08, 18.78 0.24 C19.69 0.4, 20.6 0.65, 21.47 0.96 C22.34 1.28, 23.2 1.68, 24 2.14 C24.8 2.61, 25.58 3.15, 26.28 3.74 C26.99 4.34, 27.66 5.01, 28.26 5.72 C28.85 6.42, 29.39 7.2, 29.86 8 C30.32 8.8, 30.72 9.66, 31.04 10.53 C31.35 11.4, 31.6 12.31, 31.76 13.22 C31.92 14.13, 31.96 15.54, 32 16 C32.04 16.46, 32.04 15.54, 32 16" stroke="#202124" stroke-width="2" fill="none"></path></g><g transform="translate(380.5 618) rotate(0 4.5 8)"><text x="4.5" y="13" font-family="Helvetica, Segoe UI Emoji" font-size="14px" fill="#FFFFFF" text-anchor="middle" style="white-space: pre;" direction="ltr">2</text></g><g stroke-linecap="round" transform="translate(290 250) rotate(0 16 16)"><path d="M32 16 C32 16.93, 31.92 17.87, 31.76 18.78 C31.6 19.69, 31.35 20.6, 31.04 21.47 C30.72 22.34, 30.32 23.2, 29.86 24 C29.39 24.8, 28.85 25.58, 28.26 26.28 C27.66 26.99, 26.99 27.66, 26.28 28.26 C25.58 28.85, 24.8 29.39, 24 29.86 C23.2 30.32, 22.34 30.72, 21.47 31.04 C20.6 31.35, 19.69 31.6, 18.78 31.76 C17.87 31.92, 16.93 32, 16 32 C15.07 32, 14.13 31.92, 13.22 31.76 C12.31 31.6, 11.4 31.35, 10.53 31.04 C9.66 30.72, 8.8 30.32, 8 29.86 C7.2 29.39, 6.42 28.85, 5.72 28.26 C5.01 27.66, 4.34 26.99, 3.74 26.28 C3.15 25.58, 2.61 24.8, 2.14 24 C1.68 23.2, 1.28 22.34, 0.96 21.47 C0.65 20.6, 0.4 19.69, 0.24 18.78 C0.08 17.87, 0 16.93, 0 16 C0 15.07, 0.08 14.13, 0.24 13.22 C0.4 12.31, 0.65 11.4, 0.96 10.53 C1.28 9.66, 1.68 8.8, 2.14 8 C2.61 7.2, 3.15 6.42, 3.74 5.72 C4.34 5.01, 5.01 4.34, 5.72 3.74 C6.42 3.15, 7.2 2.61, 8 2.14 C8.8 1.68, 9.66 1.28, 10.53 0.96 C11.4 0.65, 12.31 0.4, 13.22 0.24 C14.13 0.08, 15.07 0, 16 0 C16.93 0, 17.87 0.08, 18.78 0.24 C19.69 0.4, 20.6 0.65, 21.47 0.96 C22.34 1.28, 23.2 1.68, 24 2.14 C24.8 2.61, 25.58 3.15, 26.28 3.74 C26.99 4.34, 27.66 5.01, 28.26 5.72 C28.85 6.42, 29.39 7.2, 29.86 8 C30.32 8.8, 30.72 9.66, 31.04 10.53 C31.35 11.4, 31.6 12.31, 31.76 13.22 C31.92 14.13, 31.96 15.54, 32 16 C32.04 16.46, 32.04 15.54, 32 16" stroke="none" stroke-width="0" fill="#202124"></path><path d="M32 16 C32 16.93, 31.92 17.87, 31.76 18.78 C31.6 19.69, 31.35 20.6, 31.04 21.47 C30.72 22.34, 30.32 23.2, 29.86 24 C29.39 24.8, 28.85 25.58, 28.26 26.28 C27.66 26.99, 26.99 27.66, 26.28 28.26 C25.58 28.85, 24.8 29.39, 24 29.86 C23.2 30.32, 22.34 30.72, 21.47 31.04 C20.6 31.35, 19.69 31.6, 18.78 31.76 C17.87 31.92, 16.93 32, 16 32 C15.07 32, 14.13 31.92, 13.22 31.76 C12.31 31.6, 11.4 31.35, 10.53 31.04 C9.66 30.72, 8.8 30.32, 8 29.86 C7.2 29.39, 6.42 28.85, 5.72 28.26 C5.01 27.66, 4.34 26.99, 3.74 26.28 C3.15 25.58, 2.61 24.8, 2.14 24 C1.68 23.2, 1.28 22.34, 0.96 21.47 C0.65 20.6, 0.4 19.69, 0.24 18.78 C0.08 17.87, 0 16.93, 0 16 C0 15.07, 0.08 14.13, 0.24 13.22 C0.4 12.31, 0.65 11.4, 0.96 10.53 C1.28 9.66, 1.68 8.8, 2.14 8 C2.61 7.2, 3.15 6.42, 3.74 5.72 C4.34 5.01, 5.01 4.34, 5.72 3.74 C6.42 3.15, 7.2 2.61, 8 2.14 C8.8 1.68, 9.66 1.28, 10.53 0.96 C11.4 0.65, 12.31 0.4, 13.22 0.24 C14.13 0.08, 15.07 0, 16 0 C16.93 0, 17.87 0.08, 18.78 0.24 C19.69 0.4, 20.6 0.65, 21.47 0.96 C22.34 1.28, 23.2 1.68, 24 2.14 C24.8 2.61, 25.58 3.15, 26.28 3.74 C26.99 4.34, 27.66 5.01, 28.26 5.72 C28.85 6.42, 29.39 7.2, 29.86 8 C30.32 8.8, 30.72 9.66, 31.04 10.53 C31.35 11.4, 31.6 12.31, 31.76 13.22 C31.92 14.13, 31.96 15.54, 32 16 C32.04 16.46, 32.04 15.54, 32 16" stroke="#202124" stroke-width="2" fill="none"></path></g><g transform="translate(300.5 258) rotate(0 4.5 8)"><text x="4.5" y="13" font-family="Helvetica, Segoe UI Emoji" font-size="14px" fill="#FFFFFF" text-anchor="middle" style="white-space: pre;" direction="ltr">4</text></g><g stroke-linecap="round" transform="translate(290 470) rotate(0 16 16)"><path d="M32 16 C32 16.93, 31.92 17.87, 31.76 18.78 C31.6 19.69, 31.35 20.6, 31.04 21.47 C30.72 22.34, 30.32 23.2, 29.86 24 C29.39 24.8, 28.85 25.58, 28.26 26.28 C27.66 26.99, 26.99 27.66, 26.28 28.26 C25.58 28.85, 24.8 29.39, 24 29.86 C23.2 30.32, 22.34 30.72, 21.47 31.04 C20.6 31.35, 19.69 31.6, 18.78 31.76 C17.87 31.92, 16.93 32, 16 32 C15.07 32, 14.13 31.92, 13.22 31.76 C12.31 31.6, 11.4 31.35, 10.53 31.04 C9.66 30.72, 8.8 30.32, 8 29.86 C7.2 29.39, 6.42 28.85, 5.72 28.26 C5.01 27.66, 4.34 26.99, 3.74 26.28 C3.15 25.58, 2.61 24.8, 2.14 24 C1.68 23.2, 1.28 22.34, 0.96 21.47 C0.65 20.6, 0.4 19.69, 0.24 18.78 C0.08 17.87, 0 16.93, 0 16 C0 15.07, 0.08 14.13, 0.24 13.22 C0.4 12.31, 0.65 11.4, 0.96 10.53 C1.28 9.66, 1.68 8.8, 2.14 8 C2.61 7.2, 3.15 6.42, 3.74 5.72 C4.34 5.01, 5.01 4.34, 5.72 3.74 C6.42 3.15, 7.2 2.61, 8 2.14 C8.8 1.68, 9.66 1.28, 10.53 0.96 C11.4 0.65, 12.31 0.4, 13.22 0.24 C14.13 0.08, 15.07 0, 16 0 C16.93 0, 17.87 0.08, 18.78 0.24 C19.69 0.4, 20.6 0.65, 21.47 0.96 C22.34 1.28, 23.2 1.68, 24 2.14 C24.8 2.61, 25.58 3.15, 26.28 3.74 C26.99 4.34, 27.66 5.01, 28.26 5.72 C28.85 6.42, 29.39 7.2, 29.86 8 C30.32 8.8, 30.72 9.66, 31.04 10.53 C31.35 11.4, 31.6 12.31, 31.76 13.22 C31.92 14.13, 31.96 15.54, 32 16 C32.04 16.46, 32.04 15.54, 32 16" stroke="none" stroke-width="0" fill="#202124"></path><path d="M32 16 C32 16.93, 31.92 17.87, 31.76 18.78 C31.6 19.69, 31.35 20.6, 31.04 21.47 C30.72 22.34, 30.32 23.2, 29.86 24 C29.39 24.8, 28.85 25.58, 28.26 26.28 C27.66 26.99, 26.99 27.66, 26.28 28.26 C25.58 28.85, 24.8 29.39, 24 29.86 C23.2 30.32, 22.34 30.72, 21.47 31.04 C20.6 31.35, 19.69 31.6, 18.78 31.76 C17.87 31.92, 16.93 32, 16 32 C15.07 32, 14.13 31.92, 13.22 31.76 C12.31 31.6, 11.4 31.35, 10.53 31.04 C9.66 30.72, 8.8 30.32, 8 29.86 C7.2 29.39, 6.42 28.85, 5.72 28.26 C5.01 27.66, 4.34 26.99, 3.74 26.28 C3.15 25.58, 2.61 24.8, 2.14 24 C1.68 23.2, 1.28 22.34, 0.96 21.47 C0.65 20.6, 0.4 19.69, 0.24 18.78 C0.08 17.87, 0 16.93, 0 16 C0 15.07, 0.08 14.13, 0.24 13.22 C0.4 12.31, 0.65 11.4, 0.96 10.53 C1.28 9.66, 1.68 8.8, 2.14 8 C2.61 7.2, 3.15 6.42, 3.74 5.72 C4.34 5.01, 5.01 4.34, 5.72 3.74 C6.42 3.15, 7.2 2.61, 8 2.14 C8.8 1.68, 9.66 1.28, 10.53 0.96 C11.4 0.65, 12.31 0.4, 13.22 0.24 C14.13 0.08, 15.07 0, 16 0 C16.93 0, 17.87 0.08, 18.78 0.24 C19.69 0.4, 20.6 0.65, 21.47 0.96 C22.34 1.28, 23.2 1.68, 24 2.14 C24.8 2.61, 25.58 3.15, 26.28 3.74 C26.99 4.34, 27.66 5.01, 28.26 5.72 C28.85 6.42, 29.39 7.2, 29.86 8 C30.32 8.8, 30.72 9.66, 31.04 10.53 C31.35 11.4, 31.6 12.31, 31.76 13.22 C31.92 14.13, 31.96 15.54, 32 16 C32.04 16.46, 32.04 15.54, 32 16" stroke="#202124" stroke-width="2" fill="none"></path></g><g transform="translate(300.5 478) rotate(0 4.5 8)"><text x="4.5" y="13" font-family="Helvetica, Segoe UI Emoji" font-size="14px" fill="#FFFFFF" text-anchor="middle" style="white-space: pre;" direction="ltr">3</text></g></svg>